<svg width="99" height="19" viewBox="0 0 99 19" fill="none" xmlns="http://www.w3.org/2000/svg">
<g clip-path="url(#clip0_3_770)">
<path d="M99 18.9093C96.0028 18.2674 93.3315 20.1862 91.383 17.2696C86.4302 9.85934 86.5719 9.97796 90.8445 2.40727C92.8214 -1.09548 95.6485 0.523318 98.9362 0.0767517C97.6041 2.33749 96.6688 4.24936 95.4289 5.93793C93.7141 8.28241 93.4591 10.3896 95.3438 12.8039C96.6192 14.4576 97.5049 16.3904 99 18.9093Z" fill="#FAFAF9"/>
<path d="M10.6922 0.174443C10.841 1.38157 10.2387 2.00257 9.73562 2.58171C5.76769 7.166 5.59763 11.6945 9.76397 16.2648C10.2812 16.83 10.5292 17.6184 11.174 18.7977C8.38936 18.2813 5.78894 20.2211 3.80498 17.3393C-1.25414 9.98495 -1.2258 9.45465 3.56407 1.91186C5.56221 -1.2141 8.2689 0.634964 10.6922 0.174443Z" fill="#FAFAF9"/>
<path d="M40.5792 19C37.4049 18.2743 34.6627 20.1862 32.6929 16.9346C28.0377 9.2523 27.981 9.16159 32.8772 1.73742C34.8045 -1.19317 37.4545 0.621006 40.5084 0C38.9708 2.64451 37.9434 4.80756 36.5475 6.71245C35.0879 8.69409 35.2863 10.3478 36.5971 12.2596C37.8938 14.1645 38.9566 16.2229 40.5792 19Z" fill="#FAFAF9"/>
<path d="M69.6302 0.53031C63.6003 6.55198 63.8412 12.4341 70.3104 18.6721C66.8385 18.5325 64.2168 20.0955 62.2753 17.437C57.1879 10.4594 57.4004 10.1524 61.3259 2.8399C63.3311 -0.900097 66.2291 0.314005 69.6302 0.53031Z" fill="#FAFAF9"/>
</g>
<defs>
<clipPath id="clip0_3_770">
<rect width="99" height="19" fill="white"/>
</clipPath>
</defs>
</svg>
