<svg width="91" height="24" viewBox="0 0 91 24" fill="none" xmlns="http://www.w3.org/2000/svg">
<g clip-path="url(#clip0_3_734)">
<path d="M24.2116 23.5188C22.1594 24.0533 20.8792 22.9051 19.6649 20.8198C14.1614 11.3767 14.0954 11.4163 19.8761 2.44165C20.9913 0.706122 26.5345 -0.653269 28.138 0.428964C29.1807 1.13506 28.2964 1.76856 27.9797 2.34267C26.7655 4.55333 25.6568 6.84978 24.1919 8.88226C22.6675 11.0071 22.8127 12.7955 24.2182 14.8543C25.4523 16.6559 26.3365 18.695 27.5507 20.5163C29.0091 22.7137 28.9629 23.8752 25.9142 23.5254C25.4787 23.4792 25.0365 23.5188 24.2116 23.5188Z" fill="url(#paint0_linear_3_734)"/>
<path d="M87.3376 23.4792C84.3746 24.1919 83.233 22.3112 81.603 20.2787C76.9969 14.5112 76.898 9.25177 81.6558 3.50406C83.9193 0.772079 86.4071 -0.620307 89.9507 0.296951C91.4091 0.673094 90.967 1.37918 90.4985 2.19086C89.0797 4.65888 87.7335 7.16649 86.2157 9.56853C85.2259 11.1325 85.0939 12.4655 86.1893 14.069C87.4233 15.8706 88.4198 17.8305 89.4624 19.7508C90.0233 20.7802 91.4289 21.7569 90.8746 22.8853C90.1883 24.2645 88.499 23.202 87.3376 23.4792Z" fill="url(#paint1_linear_3_734)"/>
<path d="M70.9523 23.5254C68.8142 24.1127 67.7782 22.3969 66.2274 20.6218C60.9284 14.5375 61.5949 8.9152 66.4056 3.00911C68.1279 0.904036 72.0609 -0.692918 74.6081 0.323326C76.0731 0.910636 75.1295 1.74871 74.7731 2.40201C73.6117 4.51368 72.5163 6.69135 71.1173 8.64465C69.5863 10.7827 69.3355 12.6172 70.9985 14.8411C72.3645 16.669 73.1894 18.8995 74.496 20.7802C76.2513 23.3142 75.0437 23.6837 72.7604 23.5254C72.3315 23.499 71.8894 23.5254 70.9523 23.5254Z" fill="url(#paint2_linear_3_734)"/>
<path d="M39.9766 23.4858C37.5482 24.2183 36.268 22.6147 34.9812 20.4041C29.9924 11.8452 29.933 11.8848 34.9944 3.41827C36.6705 0.620301 40.1614 -0.646704 43.2761 0.316748C44.7807 0.778677 44.0812 1.57055 43.6721 2.28984C42.3193 4.67208 41.0259 7.1005 39.5147 9.37715C38.4193 11.0335 38.2213 12.3995 39.4157 14.1218C40.8477 16.1873 41.9365 18.4904 43.2695 20.6218C44.5497 22.6609 44.6091 23.8619 41.666 23.4858C41.237 23.4396 40.7949 23.4858 39.9766 23.4858Z" fill="url(#paint3_linear_3_734)"/>
<path d="M55.9858 23.499C53.1416 24.1589 52.0264 22.3244 50.4954 20.4041C45.9817 14.7224 45.5924 9.39697 50.2975 3.57007C52.4619 0.88428 55.4975 -0.673081 58.8894 0.329965C60.4863 0.798493 59.6284 1.61677 59.2655 2.27007C57.7873 4.94925 56.2894 7.62184 54.7056 10.235C53.9929 11.4097 53.9665 12.3467 54.7122 13.5411C55.9858 15.5736 57.0548 17.7315 58.2295 19.8234C58.8036 20.8462 60.1696 21.902 59.5822 22.9579C58.863 24.2579 57.1604 23.1031 55.9858 23.499Z" fill="url(#paint4_linear_3_734)"/>
<path d="M8.75684 0.257346C9.96445 0.257346 10.5122 0.283742 11.0599 0.250747C12.901 0.151763 13.5543 0.620291 12.3863 2.45481C10.9147 4.76445 9.6939 7.23247 8.24212 9.55532C7.18628 11.2381 7.21268 12.6634 8.3477 14.3462C9.87207 16.6162 11.0731 19.0975 12.4985 21.4401C13.5081 23.0964 12.8878 23.4396 11.2183 23.5254C7.79339 23.7101 5.21319 23.3802 3.23349 19.632C-0.976662 11.6406 -1.24062 11.8386 3.41166 3.99237C4.81725 1.62334 6.01166 -0.732501 8.75684 0.257346Z" fill="url(#paint5_linear_3_734)"/>
</g>
<defs>
<linearGradient id="paint0_linear_3_734" x1="22.0852" y1="0.0427856" x2="22.0852" y2="23.6493" gradientUnits="userSpaceOnUse">
<stop stop-color="#569DE0"/>
<stop offset="1" stop-color="#0093A7" stop-opacity="0.3"/>
</linearGradient>
<linearGradient id="paint1_linear_3_734" x1="84.5598" y1="0.015625" x2="84.5598" y2="23.6331" gradientUnits="userSpaceOnUse">
<stop stop-color="#569DE0"/>
<stop offset="1" stop-color="#0093A7" stop-opacity="0.3"/>
</linearGradient>
<linearGradient id="paint2_linear_3_734" x1="68.9603" y1="0.00927734" x2="68.9603" y2="23.6428" gradientUnits="userSpaceOnUse">
<stop stop-color="#569DE0"/>
<stop offset="1" stop-color="#0093A7" stop-opacity="0.3"/>
</linearGradient>
<linearGradient id="paint3_linear_3_734" x1="37.7075" y1="-0.00280762" x2="37.7075" y2="23.6654" gradientUnits="userSpaceOnUse">
<stop stop-color="#569DE0"/>
<stop offset="1" stop-color="#0093A7" stop-opacity="0.3"/>
</linearGradient>
<linearGradient id="paint4_linear_3_734" x1="53.3794" y1="0.0234985" x2="53.3794" y2="23.6361" gradientUnits="userSpaceOnUse">
<stop stop-color="#569DE0"/>
<stop offset="1" stop-color="#0093A7" stop-opacity="0.3"/>
</linearGradient>
<linearGradient id="paint5_linear_3_734" x1="6.49273" y1="0.0255127" x2="6.49273" y2="23.565" gradientUnits="userSpaceOnUse">
<stop stop-color="#569DE0"/>
<stop offset="1" stop-color="#0093A7" stop-opacity="0.3"/>
</linearGradient>
<clipPath id="clip0_3_734">
<rect width="91" height="23.664" fill="white"/>
</clipPath>
</defs>
</svg>
