<svg width="362" height="475" viewBox="0 0 362 475" fill="none" xmlns="http://www.w3.org/2000/svg">
<path d="M230.063 428.044C230.048 424.795 230.032 421.719 230.111 418.628C230.237 413.991 228.657 411.151 224.881 409.968C228.357 413.817 229.432 418.281 228.847 423.155C227.567 433.896 226.256 444.621 224.787 455.331C224.565 456.94 223.396 458.423 222.67 459.968C221.469 449.054 222.812 438.218 219.052 428.864C219.052 437.476 219.399 446.845 218.909 456.151C218.641 461.341 218.009 461.309 222.938 462.603C221.595 470.205 218.783 472.808 211.247 472.95C210.03 472.965 208.182 472.066 207.629 471.041C199.84 456.388 191.72 442.003 179.46 430.394C178.464 429.448 178.18 426.64 178.812 425.284C180.013 422.729 179.681 421.136 177.501 419.621C168.827 413.58 160.185 407.508 151.464 401.546C150.627 400.978 149.363 401.041 148.304 400.82C155.493 407.145 162.981 412.571 170.265 418.265C172.413 419.937 173.93 422.397 175.747 424.495L174.783 425.363C164.293 419.054 153.249 413.644 142.885 406.514C138.793 409.558 134.006 413.107 128.398 417.287C131.684 415.931 134.591 415.426 136.502 413.785C139.204 411.451 141.274 412.066 143.881 413.517C152.649 418.407 161.48 423.186 170.265 428.044C171.339 428.644 172.287 429.448 173.298 430.142C173.251 430.568 173.219 430.978 173.172 431.404C172.982 431.42 172.792 431.451 172.603 431.483C173.172 432.397 173.377 433.517 173.219 434.543C176.015 435.505 179.128 436.435 180.645 438.454C188.007 448.202 194.927 458.328 201.562 468.596C205.907 475.315 205.559 475.552 213.554 474.653C214.833 474.511 216.081 474.022 217.361 473.896C221.453 473.47 223.507 471.183 224.202 467.192C225.893 457.461 228.041 447.808 229.4 438.044C229.495 437.382 229.605 436.845 229.763 436.372C229.905 433.565 230.032 430.804 230.063 428.044Z" fill="#2B2B2B"/>
<path d="M177.896 11.9716C173.851 11.3249 169.917 10.1262 166.031 8.69085C164.15 7.99684 162.27 7.30283 160.406 6.59305C158.905 6.48264 157.42 6.35646 155.919 6.19873C139.078 4.36908 122.283 2.17665 105.442 0.31545C101.239 -0.141963 96.8946 -0.2366 93.324 2.68138C116.422 2.09778 138.888 6.89274 161.796 8.73816C161.48 9.46372 161.275 9.98422 161.18 10.1893C170.928 12.3502 180.566 14.4953 190.219 16.6246C190.266 16.4038 190.313 16.1987 190.361 15.9779L177.896 11.9716Z" fill="#2B2B2B"/>
<path d="M257.933 11.1041C257.98 10.9148 258.028 10.7255 258.075 10.552C253.051 9.19557 247.979 7.60251 243.54 5.23658C238.658 4.40062 233.997 1.94005 229.131 0.583584C225.972 -0.299697 222.622 -0.473199 219.952 2.17664C216.698 5.41008 212.811 6.86119 208.545 7.28705C207.044 8.5962 205.307 9.68453 203.49 10.552H205.307C201.878 13.2965 199.034 15.5678 196.191 17.8391C196.396 18.123 196.601 18.4069 196.807 18.6908C199.461 16.9085 202.099 15.0946 204.801 13.3912C206.539 12.2871 208.451 10.4416 210.173 10.5678C214.075 10.8517 216.239 8.86434 218.325 6.26182C222.117 1.54573 226.84 0.615129 232.339 2.8391C237.663 4.98421 243.003 7.08201 248.311 9.25866C254.884 11.9558 261.44 14.7161 268.012 17.4448C268.107 17.2555 268.202 17.0662 268.281 16.877C264.821 14.9527 261.377 13.0284 257.933 11.1041Z" fill="#2B2B2B"/>
<path d="M166.931 78.6593C164.182 77.1766 161.386 75.9148 163.487 72.4921C161.954 73.0757 159.822 74.6845 158.716 74.1482C149.331 69.7003 140.136 64.858 130.72 60.0473C132.205 56.9874 133.532 54.2429 134.859 51.4984C134.622 51.388 134.385 51.2776 134.133 51.1672C132.316 53.6751 130.483 56.183 128.54 58.8643C122.789 56.3249 117.228 53.817 111.619 51.4038C102.329 47.4132 93.0081 43.4858 83.6867 39.5741C83.118 39.3375 82.407 39.306 81.7751 39.3218C72.5485 39.5741 64.8386 34.7318 55.7069 32.1451C67.2717 23.2019 78.2203 14.7003 89.5797 5.88327C86.6885 6.29336 84.2239 6.86119 81.8541 7.08201C82.17 8.88012 81.3801 10.9148 79.4684 11.5615C65.7866 23.2019 52.4365 34.0694 37.1116 42.3028C39.75 41.4984 42.3094 40.5205 44.5529 39.0694C51.2832 34.6688 58.0609 34.8107 65.4074 37.6025C80.5112 43.3596 95.7571 48.6908 110.94 54.2271C116.485 56.2618 122.015 58.3754 128.413 60.7729C124.385 63.0284 121.288 64.7792 118.176 66.53C118.318 66.8296 118.46 67.1293 118.602 67.429C120.577 66.593 122.678 65.9937 124.479 64.8896C128.729 62.2555 132.569 62.6498 136.945 64.9842C149.695 71.7981 162.65 78.2334 175.526 84.7949C176.632 85.3628 177.785 85.8044 178.922 86.3249C175.147 83.3596 171.086 80.9148 166.931 78.6593Z" fill="#2B2B2B"/>
<path d="M285.47 321.104C283.385 322.319 281.299 323.549 278.993 324.905C281.125 316.972 288.488 316.719 295.06 314.164C290.731 311.546 286.955 309.148 283.037 307.019C282.216 306.577 280.841 307.271 279.767 307.098C277.46 306.703 274.695 306.751 273.005 305.457C263.02 297.744 253.319 289.653 243.445 281.767C238.089 277.492 237.078 273.991 239.606 267.476C244.077 255.978 248.517 244.464 252.956 232.95C253.367 231.877 253.604 230.741 254.03 229.243C251.566 228.801 249.401 228.407 247.221 228.013C247.174 228.186 247.126 228.344 247.079 228.517C248.28 229.101 249.496 229.685 250.697 230.268C250.634 230.473 250.57 230.678 250.507 230.883C246.763 230.379 243.003 229.89 238.769 229.322C239.464 228.659 239.954 228.186 240.712 227.461C238.8 227.287 237.015 226.845 235.324 227.066C234.329 227.192 233.018 228.139 232.623 229.069C229.684 235.726 226.967 242.476 224.107 249.164C223.396 250.82 222.464 252.382 221.627 253.991C221.184 253.785 220.758 253.596 220.316 253.391C223.697 244.606 227.077 235.82 230.458 227.035C230.111 226.83 229.779 226.625 229.432 226.42C228.705 227.524 227.757 228.549 227.283 229.748C225.893 233.249 224.755 236.861 223.381 240.363C221.406 245.363 218.072 248.817 212.621 250.252C207.234 251.672 201.941 253.502 196.633 255.205C191.34 256.909 190.124 256.53 186.285 251.609C183.078 253.423 179.902 254.29 178.764 250.174C175.873 252.35 172.808 254.243 170.265 256.703C168.701 258.218 167.215 260.489 166.963 262.571C166.268 268.249 166.173 274.006 165.983 279.732C165.888 282.539 167.042 284.274 169.933 285.647C174.688 287.934 178.954 291.199 183.488 293.959C184.484 294.574 185.7 294.858 186.806 295.284C187.027 294.937 187.233 294.606 187.454 294.259C185.669 292.729 183.868 291.199 181.64 289.29C183.915 290.079 185.748 291.325 187.406 291.12C189.192 290.899 190.693 288.927 192.509 288.407C197.486 286.972 202.558 285.899 207.582 284.669C207.661 285 207.74 285.315 207.819 285.647C204.074 286.514 200.204 287.019 196.665 288.391C194.405 289.259 192.446 291.23 190.772 293.092C190.203 293.722 190.914 295.521 191.135 297.666C193.315 295.284 194.769 293.691 196.728 291.546C196.728 293.36 196.728 294.495 196.728 296.672C200.346 290.284 206.065 290.284 211.452 288.927C220.347 286.703 226.967 289.968 233.555 295.379C241.628 301.987 250.191 307.997 258.517 314.29C261.724 316.719 264.063 319.653 264.837 323.817C265.564 327.729 267.191 329.132 273.1 332.035C272.689 330.915 272.404 330.095 271.931 328.77C273.463 329.48 274.585 330.016 275.675 330.521C273.605 336.893 273.826 337.492 279.688 340.883C283.732 343.233 287.808 345.521 292.153 348.013C295.029 341.073 301.111 340.883 307.036 340.647C310.322 340.521 314.43 348.344 312.581 351.956C306.214 364.495 299.484 376.861 292.88 389.29C292.738 389.558 292.327 389.669 292.659 389.464C292.485 387.319 292.122 384.937 292.169 382.571C292.2 380.82 292.39 378.88 293.148 377.35C296.466 370.71 299.942 364.148 303.528 357.65C304.208 356.404 305.882 355.757 306.783 354.574C308.11 352.855 310.022 350.962 310.132 349.054C310.29 346.167 307.841 344.338 304.95 344.243C302.391 344.164 299.689 344.385 297.24 345.11C293.78 346.136 292.058 349.416 293.243 352.886C294.412 356.341 293.67 359.274 292.074 362.24C288.804 368.328 285.723 374.527 282.105 380.41C280.557 382.934 278.06 385 275.691 386.893C273.337 388.785 273.147 391.64 275.754 393.344C281.868 397.35 288.014 401.309 294.128 405.3C295.171 405.978 296.15 406.767 296.909 407.902C288.677 403.076 279.024 400.568 272.768 392.603C270.872 390.174 268.534 388.044 266.922 385.457C265.595 383.328 264.426 380.741 264.268 378.297C263.826 371.53 260.903 366.751 255.31 362.792C244.883 355.426 234.914 347.429 224.139 339.243C220.047 344.416 216.303 349.369 212.321 354.133C209.683 357.287 206.871 360.363 203.79 363.076C201.262 365.3 198.229 366.94 195.432 368.849C187.991 373.927 185.479 381.956 182.904 389.905C182.54 391.041 182.967 392.445 183.062 394.227C176.063 388.991 169.222 384.054 162.665 378.754C161.496 377.808 160.991 375.268 161.196 373.596C162.018 366.483 163.139 359.401 164.34 352.334C164.909 348.959 164.293 346.325 161.623 343.943C150.99 334.48 140.547 324.827 129.914 315.379C124.163 310.268 119.361 304.7 117.149 297.05C115.364 290.915 112.63 289.527 106.516 291.372C101.776 292.808 97.8425 292.413 94.43 288.644C90.1011 283.833 84.6347 285.473 79.3736 286.12C78.2835 286.262 77.1934 286.53 75.9611 286.183C78.6943 285.063 81.4433 283.959 84.6505 282.65C80.2426 279.621 76.2297 276.861 72.5643 274.353C73.8914 273.596 75.4871 273.123 76.4508 272.066C80.5586 267.539 84.8716 266.767 90.3381 269.874C97.2422 273.786 104.446 277.177 111.524 280.804C114.4 282.287 115.758 284.574 115.142 287.855C115.048 288.36 114.7 289.069 114.905 289.353C120.735 297.208 120.609 309.464 132.553 313.06C133.88 311.167 135.223 309.101 136.724 307.161C139.172 303.959 141.653 301.073 146.013 299.937C151.037 298.628 151.669 294.369 147.799 291.073C135.223 280.394 121.683 271.104 107.259 263.107C98.0163 257.981 88.853 256.562 78.9945 262.098C76.5614 263.47 72.4379 262.697 69.3571 261.877C65.5022 260.836 62.0581 258.344 58.2031 257.224C55.7385 256.498 52.8789 257.082 50.1931 257.082C50.1141 257.508 50.0193 257.934 49.9403 258.344C54.6326 261.262 59.3248 264.18 64.0171 267.098C63.8907 267.397 63.7485 267.697 63.6221 267.997C61.7421 267.24 59.862 266.467 57.9819 265.71C54.4904 264.322 50.9514 263.028 47.4915 261.53C43.5101 259.811 40.6979 261.293 38.4071 264.495C36.8272 266.719 35.2789 268.975 33.4779 271.562C38.1069 274.858 42.578 278.06 47.0491 281.246C46.9859 281.356 46.9227 281.467 46.8437 281.577C45.2796 281.088 43.6997 280.599 41.3773 279.874C45.3586 289.274 55.1381 291.262 60.6046 297.918C60.9205 297.729 61.2365 297.555 61.5525 297.366C60.7151 295 59.8936 292.65 59.1037 290.41C61.3629 290.41 63.8907 290.41 66.4185 290.41C65.9604 290.836 65.2968 291.467 64.4121 292.303C65.281 293.486 66.1816 294.7 67.7299 296.814C65.8024 295.726 64.7597 295.142 62.611 293.927C62.9428 296.025 62.7532 297.461 63.3694 298.312C65.3442 301.041 67.4139 303.786 69.8311 306.12C74.1442 310.268 78.7417 314.117 82.9916 317.902C82.8178 316.688 82.486 314.479 82.1542 312.192C86.7359 318.691 93.3241 315.647 99.296 315.394C104.209 315.189 109.107 314.464 114.005 313.975C114.052 314.338 114.1 314.716 114.131 315.079C105.6 316.041 97.0842 317.003 88.1262 317.997C89.1531 320.615 90.0221 322.855 90.891 325.095C90.7172 325.205 90.5435 325.315 90.3697 325.426C88.8688 323.218 87.3837 321.009 85.7722 318.628C82.9284 321.498 84.4135 323.88 85.8986 326.199C92.6921 336.845 96.2153 348.439 95.4569 361.057C95.1409 366.262 93.8612 371.42 93.0239 376.593C92.5025 376.562 91.997 376.53 91.4756 376.514C90.7488 372.539 90.0221 368.565 89.3269 364.669C76.672 362.918 58.4875 379.905 56.6074 390.82C51.8204 385.252 47.5073 379.716 42.6412 374.716C33.1145 364.89 23.3192 355.331 13.5555 345.726C9.65312 341.877 9.84271 342.224 13.3817 338.218C17.521 333.533 21.0599 328.344 24.9307 323.423C26.1314 321.893 27.3795 320.315 28.8962 319.133C32.6721 316.199 36.9536 316.293 39.5604 320.252C44.9005 328.407 49.6875 336.94 54.4272 345.473C55.0433 346.593 54.443 348.927 53.6214 350.205C50.5881 354.905 47.3493 359.48 43.9683 363.943C41.6301 367.019 41.5669 369.795 43.9683 372.776C47.0491 376.609 50.0825 380.489 53.1949 384.432C67.7456 364.748 68.7884 364.006 89.3427 358.675C88.9636 353.013 87.5417 347.539 84.7611 342.555C84.1291 341.42 81.6803 340.836 80.0372 340.789C72.8487 340.536 72.0745 340.016 69.3571 333.454C65.676 324.574 62.3108 315.521 57.9503 306.987C53.89 299.022 47.1913 293.139 39.2128 288.675C43.1626 293.297 47.1123 297.934 51.0462 302.555C50.825 302.76 50.6196 302.981 50.3985 303.186C45.7062 298.849 41.0771 294.432 36.2901 290.205C34.9787 289.054 33.3041 288.091 31.6294 287.681C30.6814 287.445 29.4175 288.517 28.4064 289.401C26.084 289.921 23.6667 290.174 21.4549 290.994C16.1939 292.934 11.0592 295.205 5.81399 297.192C4.20251 297.808 2.41723 297.918 0.695152 298.249C0.473968 297.744 0.268582 297.256 0.0473976 296.751C2.03806 295.647 3.93392 294.322 6.01938 293.486C13.9978 290.284 22.0711 287.287 30.0653 284.117C31.1396 283.691 31.9928 282.697 32.9407 281.956C32.0244 281.12 31.2186 280.126 30.1759 279.495C27.5375 277.886 24.7885 276.435 21.8815 274.795C22.3396 274.432 22.545 274.164 22.6714 274.196C28.833 275.379 28.754 275.315 32.3245 270.063C34.5838 266.735 37.08 263.533 39.6078 260.394C40.2872 259.558 41.6301 258.439 42.3884 258.612C46.0064 259.495 47.5863 257.05 49.3241 254.826C51.7256 251.751 54.522 251.262 57.9345 253.107C60.573 254.527 63.3536 255.678 65.992 257.098C69.4835 258.975 72.1693 257.981 74.5708 255.11C79.5316 249.196 79.5632 249.211 87.0203 248.423C86.5305 244.606 86.0408 240.804 85.4878 236.404C82.5966 237.208 80.2268 237.744 77.9517 238.533C69.9417 241.309 61.9633 244.164 53.969 246.987C49.4347 248.596 47.4915 247.823 45.0742 244.054C42.7992 240.505 44.4897 238.344 47.1281 236.088C50.3037 233.375 53.2265 230.379 56.3546 227.603C58.4717 225.726 60.1306 222.855 63.9381 224.637C64.6965 224.984 66.8925 223.517 67.5561 222.382C68.0932 221.483 67.7772 219.227 67.0031 218.565C62.611 214.763 60.9837 208.754 54.5536 206.151C50.7618 204.621 46.3066 200.852 44.8057 195.205C42.4674 186.42 39.0075 177.934 36.1005 169.29C34.489 164.495 34.647 159.905 37.4434 155.426C38.3123 154.038 38.7073 151.782 38.2333 150.268C35.4527 141.278 37.8541 133.344 42.5148 125.71C43.6049 123.943 44.4897 122.05 45.5008 120.158C47.4283 120.457 49.2767 120.741 51.8362 121.136C47.0333 112.177 48.9134 104.495 54.3166 97.2082C53.2265 102.429 52.1521 107.603 51.0936 112.776C51.5518 112.886 51.9942 112.997 52.4523 113.123C54.8064 106.703 57.1762 100.284 59.467 93.8486C59.704 93.1704 59.6408 92.3186 59.4986 91.5931C58.8825 88.5331 58.8667 88.5331 62.8006 88.8801C59.9252 98.4227 57.0656 107.918 53.969 118.186C55.2961 117.603 56.1335 117.492 56.2599 117.114C59.0563 109.543 61.8843 101.987 64.4121 94.3375C65.0282 92.4606 64.0171 89.9527 64.7913 88.2177C66.5923 84.2114 68.7884 80.3312 71.3636 76.7981C72.1851 75.6782 74.9026 76.1199 76.4666 75.2997C77.8095 74.6057 78.7575 73.1388 79.895 72.0032C78.8365 71.0883 77.9201 69.795 76.6878 69.3375C59.9884 62.9968 43.2574 56.7823 26.5263 50.5205C25.1676 50.0158 23.8405 49.3849 22.4976 48.8013C22.5292 48.4543 22.545 48.123 22.5766 47.776C26.5895 46.2145 30.5867 44.653 34.5996 43.0757C34.6944 43.2808 34.805 43.4858 34.8998 43.6909C32.4509 44.8896 30.0021 46.1041 26.7633 47.6814C29.4333 48.8328 31.4714 49.7792 33.5568 50.5994C52.8631 58.1388 72.2325 65.5363 91.444 73.2965C96.1679 75.2051 100.355 75.7886 104.81 73.0757C106.105 72.2871 107.638 71.877 109.392 71.9085C106.516 73.47 103.625 75.0158 100.149 76.8927C104.873 79.4322 109.044 81.7192 113.262 83.9432C133.832 94.795 152.143 108.344 165.667 127.65C167.847 130.757 170.66 133.423 173.14 136.309C173.646 136.893 174.183 137.539 174.404 138.249C178.654 151.23 183.267 164.117 186.869 177.287C188.465 183.139 187.991 189.543 188.528 196.656C180.25 189.401 177.832 181.798 182.619 172.303C178.117 174.069 176.205 178.107 176.758 183.47C177.501 190.82 182.019 196.751 187.944 197.902C187.549 215.063 182.351 231.341 177.943 248.312C186.869 245.315 195.29 242.476 203.711 239.653C203.6 239.322 203.506 238.991 203.395 238.659C195.843 241.136 188.291 243.628 180.739 246.104C180.613 245.804 180.487 245.489 180.36 245.189C182.098 244.416 183.789 243.517 185.574 242.886C190.851 241.041 196.127 239.227 201.467 237.555C205.449 236.309 207.692 233.659 208.909 229.211C202.289 231.246 196.064 233.155 189.839 235.063C189.729 234.795 189.618 234.527 189.492 234.259C190.013 233.927 190.487 233.486 191.056 233.281C195.938 231.467 200.851 229.748 205.717 227.886C210.631 226.009 214.075 222.713 215.56 217.524C216.603 213.912 217.914 210.363 218.909 206.735C220.173 202.145 223.065 199.353 227.63 198.249C229.653 197.76 231.722 196.83 233.697 197.003C235.609 197.161 237.995 197.997 239.164 199.385C240.886 201.435 242.592 202.445 245.167 202.098C246.715 201.893 248.248 201.577 249.812 201.388C258.612 200.347 259.118 200.315 258.486 191.435C257.475 177.035 256.353 162.571 253.999 148.36C253.082 142.823 248.943 137.697 245.736 132.729C244.993 131.593 241.944 131.23 240.191 131.593C235.167 132.634 230.253 134.243 224.755 134.905C225.213 134.369 225.592 133.517 226.161 133.344C230.759 131.924 235.419 130.71 240.001 129.274C243.508 128.17 246.321 129.085 248.896 131.546C250.697 133.265 252.498 134.495 255.5 133.517C256.685 133.123 259.686 134.89 260.16 136.262C263.052 144.432 266.543 152.634 267.728 161.12C269.055 170.568 268.17 180.331 268.155 189.968C268.155 192.697 267.665 195 263.984 195.394C262.862 195.521 261.235 197.981 261.171 199.416C261.045 202.492 259.702 203.628 256.922 203.722C253.414 203.849 251.044 205.426 250.033 208.927C249.054 212.303 248.011 215.647 246.905 218.991C246.005 221.735 247.268 223.375 249.717 223.975C254.267 225.095 258.849 226.372 263.478 226.609C265.232 226.688 268.17 224.385 268.755 222.587C275.454 202.24 281.173 181.688 278.929 159.874C277.176 142.871 271.093 127.808 258.912 115.552C256.258 112.886 255.847 110.284 256.7 106.782C261.724 85.836 266.575 64.8423 271.472 43.959C264.631 41.1514 260.84 43.1073 259.37 49.5584C258.596 52.9811 257.727 56.388 256.669 59.7161C255.531 63.3123 253.082 65.4574 249.101 65.1262C240.396 64.4164 231.691 63.7855 223.033 62.7129C221.801 62.5552 220.347 60.2524 219.873 58.6751C218.309 53.47 217.962 47.7603 215.639 42.9811C213.08 37.6972 208.846 33.2177 205.338 28.3912C204.39 27.0978 203.395 25.836 202.431 24.5584C202.731 24.1483 203.016 23.7224 203.316 23.3123C205.149 24.164 207.171 24.7476 208.782 25.8991C216.113 31.1514 220.331 38.5016 222.591 47.082C223.412 50.2208 224.123 53.4069 225.008 56.53C225.719 59.0221 227.314 60.5363 230.079 60.5994C237.126 60.7729 244.188 61.0095 251.234 61.183C253.667 61.2461 255.136 60.1262 255.579 57.6341C256.258 53.8013 257.206 50 257.743 46.1514C258.249 42.5552 260.002 40.7729 263.668 40.8517C266.417 40.8991 269.15 40.8044 271.899 40.8517C274.269 40.8991 276.923 40.6309 276.86 37.8233C276.812 36.0568 275.311 33.612 273.747 32.7445C268.297 29.6688 262.53 27.2082 256.922 24.4006C254.236 23.0599 251.692 21.4511 249.085 19.9685C249.275 19.6057 249.465 19.2271 249.67 18.8643C256.922 22.1924 264.173 25.5047 271.709 28.959C272.183 25.9148 272.594 23.2334 273.005 20.5363C273.352 20.5363 273.716 20.552 274.063 20.552C274.174 22.4921 274.364 24.4322 274.379 26.3722C274.411 29.1009 274.932 31.4196 277.571 33.0284C279.656 34.2902 279.783 38.8801 277.997 41.4984C277.128 42.776 276.022 43.9117 274.553 45.6782C276.97 47.2555 279.103 48.8959 281.441 50.1104C308.805 64.1798 332.203 83.3912 353.674 105.174C360.452 112.05 362.616 120.142 361.826 129.464C360.531 144.653 359.567 159.858 358.145 175.032C355.807 199.89 352.821 224.653 346.154 248.801C345.269 252.035 343.831 255.142 343.136 258.407C342.662 260.584 343.041 262.95 343.041 264.164C336.595 266.893 330.355 269.527 324.083 272.177C326.626 286.23 319.311 296.688 312.644 307.114C308.979 312.839 302.138 314.432 295.945 316.53C293.196 317.461 290.636 318.912 287.998 320.126C287.176 320.473 286.323 320.789 285.47 321.104ZM155.903 239.748C159.743 244.685 164.277 246.23 171.181 244.227C165.383 242.571 160.596 241.215 155.809 239.842C154.497 238.722 153.312 237.413 151.875 236.53C142.506 230.789 134.749 223.533 130.973 212.997C122.805 190.221 125.001 168.391 137.956 147.855C139.931 144.716 142.648 142.035 145.018 139.148C145.271 139.353 145.524 139.574 145.792 139.779C144.718 141.215 143.628 142.634 142.601 144.085C141.463 145.678 140.357 147.287 139.283 148.927C127.497 167.035 126.755 186.909 130.246 207.334C131.147 212.603 134.449 216.767 138.604 220.221C139.962 221.356 140.8 223.123 141.874 224.59C142.253 225.284 143.407 225.536 143.928 226.246C149.995 234.401 158.637 237.934 168.148 240.032C170.77 240.615 171.687 239.432 172.161 237.192C172.698 234.653 173.108 232.035 174.025 229.621C175.241 226.388 174.088 224.953 171.244 223.281C144.307 207.382 138.288 168.912 164.466 147.839C164.861 147.524 165.446 147.445 166.062 147.192C161.544 141.719 157.594 136.924 153.66 132.129C153.328 132.303 152.996 132.492 152.649 132.666C153.186 134.558 153.739 136.451 154.276 138.344C154.071 138.423 153.865 138.517 153.676 138.596C152.317 136.483 150.943 134.369 148.936 131.262C144.449 135.931 140.01 139.637 136.692 144.18C119.692 167.413 119.629 204.196 136.186 227.823C141.005 234.732 147.372 239.006 155.903 239.748ZM148.952 114.085C143.628 109.385 138.398 104.89 133.295 100.221C131.715 98.7697 130.609 98.6751 129.014 100.142C122.204 106.42 115.048 112.35 108.538 118.927C100.781 126.735 95.2673 136.009 93.3083 147.05C91.0016 160.032 88.1894 162.918 75.6767 165.221C71.8376 165.931 69.3729 165.174 67.7141 161.183C63.2746 150.615 58.5033 140.205 53.732 129.779C52.8315 127.808 51.5992 125.82 50.0193 124.385C47.4283 122.05 45.4218 122.666 44.1579 125.852C42.3726 130.331 40.4926 134.779 39.0707 139.369C38.4545 141.356 38.2965 143.801 38.8495 145.804C44.6161 166.688 52.3259 186.861 61.5367 206.467C63.1956 210 65.5022 211.23 69.2781 210.71C81.3011 209.038 93.3399 207.524 105.363 205.899C110.26 205.237 111.651 203.628 111.603 198.659C111.509 185.978 112.709 173.438 115.553 161.041C115.98 159.18 115.348 156.53 114.194 154.968C110.75 150.3 110.545 150.442 114.1 145.773C118.65 139.811 123.216 133.849 127.766 127.886C127.56 127.697 127.355 127.524 127.149 127.334C123.705 130.552 120.261 133.754 116.817 136.972C116.533 136.672 116.264 136.356 115.98 136.057C119.345 132.366 122.852 128.801 126.012 124.953C128.793 121.593 131.589 122.05 135.144 124.164C133.2 124.763 131.636 125.252 129.851 125.804C133.532 128.202 136.692 127.823 139.883 125.442C144.039 122.334 148.32 119.385 152.554 116.372C152.27 115.915 151.97 115.442 151.685 114.984C147.546 117.476 143.407 119.968 139.267 122.445C139.141 122.224 139.014 122.019 138.888 121.798C142.174 119.29 145.476 116.751 148.952 114.085ZM75.2975 129.905C75.5345 129.984 75.7873 130.063 76.0243 130.142C74.5708 136.325 73.0699 142.492 71.6796 148.675C71.253 150.568 70.4947 152.729 71.0476 154.385C71.7744 156.609 73.4017 159.905 75.0447 160.158C77.8885 160.584 81.2537 159.511 84.0185 158.233C90.0221 155.473 92.4867 145.489 88.4264 141.688C84.8085 138.297 84.3819 136.372 87.4153 132.256C93.5136 123.959 99.8648 115.852 106.121 107.666C108.491 104.574 111.256 104.038 114.653 106.151C115.521 106.703 117.259 106.94 118.002 106.435C120.83 104.48 123.421 102.177 126.439 99.7161C121.383 97.0347 116.722 94.7319 112.22 92.1451C110.039 90.8991 108.617 91.0568 106.848 92.9022C101.239 98.7224 95.3937 104.338 89.7061 110.095C87.9366 111.877 86.3567 113.849 84.6821 115.741C84.3345 115.442 83.9869 115.158 83.6551 114.858C84.8401 112.508 86.025 110.158 87.1941 107.855C81.5539 104.29 81.0799 102.634 83.3076 96.388C85.314 90.8202 87.1625 85.1893 89.1058 79.4953C76.1191 77.5552 72.0588 79.9527 68.1722 91.4827C64.5543 102.208 60.9679 112.934 57.4922 123.707C57.0024 125.237 56.4968 127.256 57.0972 128.549C60.1464 135.11 63.5431 141.498 67.2243 148.738C70.1471 141.909 72.7223 135.899 75.2975 129.905ZM231.77 339.259C241.96 346.64 252.071 353.77 261.93 361.246C264.015 362.823 265.564 365.505 266.575 367.997C268.076 371.719 268.613 375.82 270.066 379.558C270.651 381.073 272.863 383.281 273.842 383.06C276.449 382.476 278.993 380.978 281.094 379.274C281.663 378.801 280.857 376.199 280.209 374.779C279.309 372.808 277.413 371.151 276.939 369.133C275.706 363.849 273.826 358.281 274.411 353.091C275.169 346.388 272.294 343.454 267.207 340.442C258.881 335.521 256.843 335.868 260.982 324.495C262.198 321.151 261.314 318.502 258.296 316.356C252.34 312.129 246.715 307.413 240.601 303.439C235.277 299.984 229.637 296.909 223.807 294.401C218.657 292.192 213.174 292.713 207.929 295.189C217.646 303.644 227.093 312.019 236.731 320.174C239.48 322.492 239.717 324.763 238.105 327.666C236.099 331.325 234.108 334.984 231.77 339.259ZM177.595 222.902C178.685 217.192 179.649 211.845 180.739 206.514C181.434 203.091 180.803 200.347 178.275 197.618C170.897 189.621 169.901 177.95 175.526 169.495C179.839 163.013 179.744 160.205 174.704 153.47C169.949 158.17 165.288 162.886 160.469 167.429C159.458 168.375 157.863 169.148 156.504 169.196C153.755 169.29 152.112 170.568 152.017 173.06C151.764 179.133 151.875 185.205 151.827 191.278C151.812 194.069 153.233 195.505 155.919 196.073C159.853 196.924 162.523 199.369 164.577 202.792C165.825 204.874 167.61 206.672 169.333 208.407C171.781 210.883 173.44 213.801 172.445 217.177C171.118 221.735 173.472 222.524 177.595 222.902ZM163.977 273.754C164.466 267.366 165.019 261.293 165.272 255.205C165.304 254.322 164.087 253.013 163.139 252.524C148.731 245.063 137.656 234.069 129.093 220.489C127.56 218.044 125.917 217.319 123.358 218.013C119.092 219.18 116.106 217.839 113.926 213.912C113.294 212.776 111.414 212.35 110.102 211.593C109.486 213.107 108.159 214.748 108.38 216.12C108.981 219.827 110.181 223.438 111.319 227.035C111.603 227.934 112.346 228.864 113.136 229.385C125.19 237.366 137.261 245.331 149.426 253.155C152.333 255.032 154.023 257.098 153.597 260.741C152.965 266.025 155.872 271.199 163.977 273.754ZM45.6904 241.498C47.9022 245.662 50.8566 245.521 54.3166 244.495C69.5309 239.968 84.7769 235.552 100.007 231.104C106.042 229.353 108.839 224.748 107.59 218.596C107.385 217.571 107.116 216.577 106.895 215.552C106.453 213.502 106.2 211.151 103.167 211.798C100.655 212.35 97.1948 211.262 96.8946 215.852C96.7998 217.303 94.9829 219.464 93.5452 219.89C82.6914 223.044 71.727 225.836 60.8099 228.77C59.9726 228.991 59.0089 229.227 58.3927 229.779C54.1428 233.612 49.9877 237.524 45.6904 241.498ZM216.16 223.391C217.045 223.391 217.819 223.47 218.562 223.375C224.502 222.587 230.427 221.593 236.383 221.009C242.481 220.426 244.804 218.391 245.325 212.382C245.483 210.457 245.594 208.517 245.673 207.129C241.992 205.883 238.626 204.732 235.245 203.612C230.19 201.94 222.638 204.59 220.726 209.211C218.862 213.707 217.693 218.502 216.16 223.391ZM117.133 171.215C121.509 172.555 123.453 171.656 124.258 167.287C126.138 157.177 130.483 147.997 137.04 140.032C138.92 137.744 138.714 135.82 136.913 134.416C135.886 133.612 133.042 133.517 132.237 134.322C128.793 137.729 125.57 141.435 122.742 145.363C120.925 147.871 119.629 150.536 115.237 149.732C118.997 156.893 118.902 163.943 117.133 171.215ZM261.772 230.237C261.077 229.827 260.366 229.401 259.671 228.991C258.091 230.789 255.926 232.334 255.026 234.416C250.807 244.338 246.858 254.369 243.003 264.432C242.134 266.688 241.849 269.211 241.565 271.656C241.454 272.618 242.102 273.675 242.387 274.685C243.177 273.991 244.267 273.438 244.709 272.571C248.216 265.757 252.04 259.054 254.884 251.956C257.727 244.937 259.528 237.492 261.772 230.237ZM87.1625 97.3344C90.4961 95.0158 92.6289 92.6814 95.1883 92.0347C97.6372 91.4196 100.528 92.5394 103.214 92.9022C103.214 93.3123 103.214 93.7224 103.198 94.1167C105.268 92.4448 107.322 90.7571 109.865 88.7066C103.799 86.3565 98.2849 84.2429 92.4235 81.9716C90.6856 87.0347 89.1215 91.6246 87.1625 97.3344ZM40.145 158.091C39.4656 167.981 52.1679 202.618 57.0972 204.432C51.4886 189.085 45.9906 174.069 40.145 158.091ZM306.83 356.183C302.817 363.565 298.994 370.536 295.281 377.555C294.855 378.36 294.981 379.464 294.855 380.442C295.218 380.473 295.597 380.521 295.961 380.552C301.427 373.013 308.189 358.439 306.83 356.183ZM73.4017 321.356C74.6814 327.808 74.9657 334.7 81.6645 340.016C81.8857 337.95 82.5492 336.451 82.0594 335.584C79.342 330.757 76.3244 326.073 73.4017 321.356ZM181.782 343.028C181.308 343.044 180.85 343.044 180.376 343.06C179.791 355.268 179.223 367.461 178.638 379.669C179.112 379.685 179.602 379.7 180.076 379.732C180.645 367.492 181.213 355.252 181.782 343.028ZM312.628 183.849C312.786 183.849 312.944 183.833 313.102 183.833C313.102 177.019 313.102 170.205 313.102 163.391C312.944 163.391 312.786 163.407 312.628 163.407C312.628 170.205 312.628 177.019 312.628 183.849ZM166.094 304.274C166.742 304.558 167.405 304.827 168.053 305.11C169.633 307.713 171.213 310.315 173.061 313.328C172.571 308.975 172.129 305.095 171.702 301.199C171.102 300.773 170.502 300.347 169.885 299.937C168.622 301.372 167.358 302.823 166.094 304.274ZM214.754 331.136C215.149 330.662 215.56 330.174 215.955 329.7C211.405 325.915 206.855 322.129 202.305 318.36C201.989 318.738 201.689 319.117 201.373 319.495C205.828 323.375 210.283 327.256 214.754 331.136ZM210.346 303.344C207.503 307.397 208.15 308.833 213.396 310.647C216.224 306.751 213.633 305.016 210.346 303.344ZM201.689 295.836C201.12 298.454 197.707 300.505 201.072 302.744C203.442 304.322 205.275 302.587 206.634 300.3C205.038 298.864 203.537 297.508 201.689 295.836ZM81.1589 252.066C82.2964 254.653 82.9916 256.199 83.8921 258.218C85.0612 256.814 85.9934 255.694 87.2573 254.196C85.2508 253.486 83.6551 252.934 81.1589 252.066Z" fill="#2B2B2B"/>
<path d="M329.802 280.394C330.608 284.59 331.382 288.786 332.235 292.965C332.598 294.779 331.698 297.634 335.189 297.24C338.254 296.877 342.188 297.776 342.678 292.965C343.405 285.584 344.052 278.202 344.716 270.82C344.827 269.669 344.921 268.517 345.948 266.562C347.607 268.091 350.562 269.511 350.688 271.151C351.099 276.688 350.498 282.303 350.277 287.871C349.819 287.839 349.377 287.823 348.919 287.792C349.219 282.019 349.535 276.262 349.835 270.489C349.298 270.41 348.776 270.331 348.239 270.268C346.217 275.662 346.833 281.562 346.201 287.208C346.122 287.981 347.244 288.896 347.971 289.968C345.917 293.17 343.421 297.05 340.893 301.009C343.484 302.902 347.323 299.196 349.171 304.069C344.953 304.59 341.051 305.174 337.148 305.536C333.404 305.883 329.77 306.498 327.685 310.016C326.721 311.64 325.473 313.801 325.821 315.394C327.953 325.095 319.912 330.331 316.278 337.413C315.678 338.596 312.47 338.454 310.48 338.927C310.622 337.114 310.18 334.953 311.017 333.533C315.393 325.994 320.18 318.707 324.62 311.215C327.005 307.177 330.007 304.338 334.81 303.533C336.738 303.218 338.807 302.476 337.701 299.653C337.449 299.543 337.212 299.353 336.975 299.353C329.66 299.401 329.644 299.401 329.091 292.066C328.822 288.565 328.633 285.063 328.443 281.546C328.427 281.23 328.617 280.883 328.712 280.568C329.059 280.505 329.423 280.457 329.802 280.394Z" fill="#2B2B2B"/>
<path d="M122.979 419.006C119.74 419.148 116.311 420.032 113.294 419.274C106.105 417.492 99.0432 415.11 92.0443 412.65C86.4673 410.694 83.9395 406.656 82.2332 400.726C80.2742 393.927 82.2806 389.527 86.5621 385.095C86.9729 384.669 87.1941 384.038 87.2573 383.028C79.1208 386.136 72.5169 393.328 61.9475 392.24C63.7011 390.662 64.7597 389.416 66.0868 388.549C70.0997 385.883 74.3338 383.533 78.2519 380.741C82.4228 377.744 86.2935 377.476 90.4329 381.199C85.0612 388.754 87.6838 396.546 89.6271 404.621C90.8436 409.7 93.2925 411.893 98.2059 412.823C106.453 414.401 114.115 418.943 122.994 417.35C122.994 417.918 122.979 418.47 122.979 419.006Z" fill="#2B2B2B"/>
<path d="M300.305 407.082C318.205 376.167 336.058 345.315 353.927 314.464C354.432 314.7 354.954 314.953 355.459 315.189C355.017 316.372 354.717 317.618 354.116 318.722C346.738 332.129 339.329 345.521 331.935 358.927C324.209 372.902 316.468 386.861 308.805 400.868C306.356 405.3 304.287 407.003 300.305 407.082Z" fill="black"/>
<path d="M96.5154 394.732C108.696 401.246 119.74 397.192 130.451 391.609C131.826 390.883 132.869 387.681 132.49 385.962C132.174 384.527 129.662 382.839 127.939 382.587C120.704 381.562 114.036 383.58 107.812 387.287C104.715 389.132 101.539 390.852 98.3955 392.634C98.1111 392.366 97.8425 392.098 97.5581 391.83C98.7273 390.505 99.691 388.88 101.097 387.902C109.249 382.334 118.381 380.174 128.176 380.71C131.463 380.899 136.107 385.095 136.265 387.729C136.423 390.489 132.632 396.104 129.74 396.735C121.493 398.533 113.231 400.331 104.889 401.688C99.5646 402.555 97.2106 400.379 96.5154 394.732Z" fill="#2B2B2B"/>
<path d="M182.762 282.35C177.864 282.382 174.135 278.47 174.041 273.218C173.93 267.145 178.306 262.413 184.026 262.445C189.476 262.476 193.837 266.956 193.805 272.492C193.773 277.776 188.686 282.319 182.762 282.35ZM185.716 269.29C184.278 267.05 181.861 267.24 179.428 268.738C176.774 270.379 176.079 273.628 177.595 276.199C179.396 279.259 181.987 280.237 184.752 278.817C187.691 277.319 188.102 275.063 187.28 273.044C184.973 273.754 183.172 274.401 181.308 274.732C181.071 274.779 180.076 272.413 180.202 272.334C181.861 271.262 183.646 270.394 185.716 269.29Z" fill="black"/>
<path d="M238.137 25.3154C236.557 28.1546 234.471 30.8675 233.65 33.9274C233.35 35.0473 236.004 36.9716 237.836 39.164C238.69 37.0031 239.258 35.5678 239.922 33.8959C241.849 34.4479 242.371 39.1482 245.136 36.2776C246.479 34.8738 246.621 32.3028 247.253 30.3943C249.449 33.4858 248.975 35.5678 244.867 40.1893C241.691 43.7539 238.595 44.1798 234.076 41.6877C229.795 39.3217 228.357 35.9779 229.732 31.6088C231.059 27.3501 234.187 25.0158 238.137 25.3154Z" fill="black"/>
<path d="M135.412 366.735C135.223 366.104 135.033 365.489 134.859 364.842C131.684 353.076 128.477 341.325 125.412 329.543C125.127 328.454 125.838 327.098 126.186 325.457C127.544 326.278 128.492 326.845 129.819 327.65C125.949 329.432 127.718 332.05 128.461 334.338C129.188 336.562 130.357 338.644 131.336 340.789C132.41 338.864 133.485 336.924 134.559 335C134.733 334.685 134.875 334.369 135.033 334.054C135.428 334.117 135.839 334.18 136.234 334.227C135.965 336.104 136.155 338.218 135.317 339.779C133.437 343.281 132.663 346.751 133.627 350.631C134.859 355.584 135.965 360.568 137.134 365.552C136.566 365.978 135.997 366.356 135.412 366.735Z" fill="#2B2B2B"/>
<path d="M241.138 159.953C239.495 162.508 237.884 165.016 236.272 167.524C236.43 167.981 236.588 168.438 236.746 168.896C238.942 168.896 241.644 169.7 243.24 168.722C246.115 166.972 245.72 163.927 243.714 161.136C247.174 162.098 249.054 165.126 248.359 168.281C247.648 171.498 242.229 174.495 238.2 173.864C234.582 173.312 232.955 170.631 233.539 166.246C234.187 161.498 236.667 159.543 241.138 159.953Z" fill="black"/>
<path d="M157.357 343.912C156.504 346.53 156.267 348.17 155.477 349.464C153.771 352.224 151.78 354.811 149.916 357.476C146.851 361.845 147.103 363.312 151.18 366.577C152.87 367.918 154.355 369.495 155.951 370.962C155.603 371.372 155.256 371.767 154.892 372.177C151.353 369.385 147.593 366.798 144.402 363.659C143.533 362.808 143.723 359.858 144.528 358.565C147.261 354.164 150.437 350.031 153.565 345.883C154.102 345.158 155.287 344.953 157.357 343.912Z" fill="#2B2B2B"/>
<path d="M234.013 143.028C238.042 139.59 241.344 139.464 244.346 142.098C247.11 144.527 247.347 148.533 244.914 151.893C242.766 154.858 237.979 156.025 234.756 154.353C231.612 152.729 231.027 149.858 233.049 144.905C234.234 147.949 234.408 152.461 238.974 150.899C240.649 150.331 242.655 146.924 242.371 145.142C241.66 140.52 237.821 142.366 234.013 143.028Z" fill="black"/>
<path d="M127.197 386.987C126.423 387.492 125.712 388.155 124.874 388.47C119.661 390.331 114.447 392.303 109.123 393.801C107.78 394.18 105.995 392.997 104.415 392.524C105.458 391.467 106.311 389.905 107.575 389.432C112.425 387.618 117.354 385.978 122.362 384.653C123.784 384.274 125.554 385.174 127.165 385.505C127.165 385.978 127.181 386.483 127.197 386.987Z" fill="#2B2B2B"/>
<path d="M232.891 179.921C236.731 175.946 248.596 174.054 252.308 176.703C250.286 182.539 237.315 184.858 232.891 179.921Z" fill="black"/>
<path d="M219.352 128.297C214.059 120.268 208.767 112.24 203.49 104.196C203.679 103.991 203.869 103.77 204.043 103.565C205.401 104.353 206.76 105.126 208.387 106.057C210.599 101.672 212.795 97.3186 214.991 92.9811C215.386 93.1704 215.781 93.3754 216.16 93.5647C214.723 97.0663 213.38 100.599 211.832 104.054C210.394 107.287 210.504 110.189 212.463 113.265C215.402 117.871 218.009 122.697 220.758 127.429C220.3 127.713 219.826 128.013 219.352 128.297Z" fill="black"/>
<path d="M171.086 282.997C170.217 281.293 168.59 279.59 168.622 277.902C168.701 272.319 169.317 266.751 169.854 261.183C169.949 260.221 170.612 259.29 171.007 258.36C171.355 258.454 171.702 258.565 172.066 258.659C172.066 266.593 172.066 274.511 172.066 282.445C171.734 282.618 171.402 282.808 171.086 282.997Z" fill="black"/>
<path d="M235.309 289.953C246.257 298.58 257.19 307.208 268.139 315.82C267.76 316.309 267.38 316.782 267.001 317.271C256.116 308.628 245.23 299.984 234.345 291.356C234.677 290.899 234.993 290.426 235.309 289.953Z" fill="black"/>
<path d="M285.47 321.104C286.323 320.789 287.176 320.473 288.03 320.158C289.025 319.937 290.036 319.732 291.031 319.511C291.221 319.716 291.395 319.937 291.584 320.142C289.767 322.192 287.982 324.243 286.134 326.278C284.822 327.729 283.416 329.101 282.121 330.552C278.677 334.385 278.677 335.284 281.931 339.18C281.71 339.479 281.473 339.779 281.252 340.079C279.609 338.612 277.966 337.161 276.117 335.505C279.277 330.615 282.374 325.868 285.47 321.104Z" fill="#2B2B2B"/>
<path d="M238.184 44.9369C240.68 47.224 242.481 48.8959 244.298 50.552C242.513 52.0189 240.807 54.4479 238.911 54.6057C237.521 54.7161 235.151 52.0189 234.645 50.1893C234.329 49.0221 236.604 47.1451 238.184 44.9369Z" fill="black"/>
<path d="M199.461 405.568C203.126 403.643 206.744 401.609 210.489 399.858C211.294 399.479 212.779 399.811 213.569 400.347C216.034 402.019 218.325 403.959 220.474 406.214C219.81 405.946 219.052 405.789 218.499 405.379C213.648 401.688 208.956 402.192 204.169 405.599C202.968 406.451 201.278 406.593 199.809 407.066C199.682 406.577 199.572 406.073 199.461 405.568Z" fill="#2B2B2B"/>
<path d="M334.921 296.041C333.594 288.659 332.266 281.278 330.86 273.47C331.761 273.691 332.883 273.738 332.93 273.991C334.226 281.246 335.426 288.533 336.643 295.804C336.058 295.883 335.489 295.962 334.921 296.041Z" fill="#2B2B2B"/>
<path d="M213.917 419.653C210.062 420.52 206.523 421.309 202.668 422.177C205.986 417.413 209.225 416.672 213.917 419.653Z" fill="#2B2B2B"/>
<path d="M100.197 357.066C99.4698 352.461 98.7431 347.855 98.0163 343.249C98.3797 343.202 98.7273 343.139 99.0906 343.091C99.6436 347.744 100.197 352.382 100.734 357.035C100.576 357.035 100.402 357.05 100.197 357.066Z" fill="#2B2B2B"/>
<path d="M148.952 114.085C145.492 116.751 142.19 119.29 138.888 121.83C139.014 122.05 139.141 122.255 139.267 122.476C143.407 119.984 147.546 117.492 151.685 115.016C151.97 115.473 152.27 115.946 152.554 116.404C148.32 119.416 144.038 122.366 139.883 125.473C136.708 127.855 133.548 128.218 129.851 125.836C131.636 125.284 133.2 124.795 135.144 124.196C131.589 122.098 128.793 121.625 126.012 124.984C122.836 128.833 119.329 132.397 115.98 136.088C116.264 136.388 116.533 136.703 116.817 137.003C120.261 133.785 123.705 130.584 127.149 127.366C127.355 127.555 127.56 127.729 127.766 127.918C123.216 133.88 118.65 139.842 114.1 145.804C110.545 150.473 110.734 150.347 114.194 155C115.348 156.546 115.98 159.211 115.553 161.073C112.709 173.47 111.509 185.994 111.603 198.691C111.635 203.659 110.245 205.268 105.363 205.931C93.3399 207.555 81.3011 209.069 69.2781 210.741C65.5022 211.262 63.2114 210.031 61.5367 206.498C52.3101 186.893 44.6161 166.719 38.8495 145.836C38.2965 143.849 38.4545 141.404 39.0707 139.401C40.5084 134.811 42.3726 130.363 44.1579 125.883C45.4376 122.697 47.4283 122.066 50.0193 124.416C51.5992 125.836 52.8315 127.839 53.732 129.811C58.5033 140.221 63.2904 150.647 67.714 161.214C69.3887 165.189 71.8534 165.946 75.6767 165.252C88.1894 162.949 91.0016 160.047 93.3083 147.082C95.2673 136.057 100.781 126.782 108.538 118.959C115.048 112.397 122.204 106.467 129.014 100.173C130.594 98.7066 131.7 98.8012 133.295 100.252C138.382 104.89 143.628 109.401 148.952 114.085ZM65.8498 193.249C65.4864 193.438 65.1388 193.628 64.7755 193.817C66.6713 197.902 68.5672 201.972 70.5421 206.23C67.8404 206.546 65.6286 206.814 63.401 207.082C63.4483 207.524 63.4799 207.965 63.5273 208.407C65.1546 208.407 66.8135 208.596 68.4092 208.375C80.211 206.688 92.0285 205.032 103.799 203.155C109.66 202.224 111.161 198.407 107.717 192.681C107.606 193.99 107.322 194.858 107.496 195.631C108.301 199.18 106.5 200.852 103.325 201.262C94.1614 202.413 84.9822 203.344 75.8347 204.59C73.3069 204.937 72.0587 204.054 70.9528 202.035C69.3571 199.038 67.5719 196.167 65.8498 193.249ZM99.5646 190.378C100.07 190.378 100.576 190.363 101.066 190.363C100.718 183.817 100.386 177.271 100.039 170.726C99.8806 170.726 99.7226 170.726 99.5488 170.726C99.5646 177.287 99.5646 183.833 99.5646 190.378Z" fill="white"/>
<path d="M155.903 239.748C147.372 239.006 141.005 234.732 136.171 227.823C119.613 204.196 119.677 167.413 136.676 144.18C139.994 139.637 144.449 135.931 148.92 131.262C150.927 134.369 152.301 136.483 153.66 138.596C153.865 138.517 154.071 138.423 154.26 138.344C153.723 136.451 153.17 134.558 152.633 132.666C152.965 132.492 153.297 132.303 153.644 132.129C157.594 136.924 161.544 141.719 166.046 147.192C165.43 147.429 164.846 147.524 164.451 147.839C138.272 168.912 144.275 207.382 171.228 223.281C174.056 224.953 175.226 226.404 174.009 229.621C173.093 232.035 172.682 234.653 172.145 237.192C171.671 239.448 170.754 240.615 168.132 240.032C158.621 237.934 149.979 234.401 143.912 226.246C143.375 225.536 142.237 225.284 141.858 224.59C140.784 223.107 139.947 221.356 138.588 220.221C134.433 216.751 131.131 212.603 130.23 207.334C126.739 186.909 127.481 167.035 139.267 148.927C140.342 147.287 141.447 145.678 142.585 144.085C143.628 142.634 144.718 141.215 145.776 139.779C145.524 139.574 145.271 139.353 145.002 139.148C142.632 142.035 139.915 144.716 137.94 147.855C124.985 168.407 122.789 190.221 130.957 212.997C134.733 223.533 142.506 230.789 151.859 236.53C153.312 237.413 154.497 238.738 155.793 239.842L155.903 239.748Z" fill="white"/>
<path d="M75.2975 129.905C72.7223 135.915 70.1313 141.924 67.2085 148.738C63.5273 141.498 60.1306 135.11 57.0814 128.549C56.481 127.256 56.9866 125.237 57.4764 123.707C60.9521 112.934 64.5385 102.208 68.1564 91.4827C72.0429 79.9369 76.1033 77.5552 89.0899 79.4953C87.1467 85.1893 85.2982 90.8202 83.2918 96.388C81.0483 102.618 81.5381 104.29 87.1783 107.855C86.0092 110.174 84.8242 112.508 83.6393 114.858C83.9869 115.158 84.3345 115.442 84.6663 115.741C86.3409 113.849 87.9208 111.877 89.6903 110.095C95.3779 104.338 101.223 98.7382 106.832 92.9022C108.617 91.0568 110.023 90.8833 112.204 92.1451C116.706 94.7319 121.367 97.0505 126.423 99.7161C123.405 102.177 120.814 104.48 117.986 106.435C117.259 106.94 115.521 106.688 114.637 106.151C111.24 104.022 108.475 104.558 106.105 107.666C99.849 115.836 93.482 123.943 87.3995 132.256C84.3819 136.372 84.8084 138.297 88.4106 141.688C92.4709 145.489 90.0063 155.473 84.0027 158.233C81.2379 159.511 77.8727 160.584 75.0289 160.158C73.3858 159.905 71.7744 156.609 71.0318 154.385C70.4946 152.729 71.253 150.552 71.6638 148.675C73.0541 142.476 74.555 136.309 76.0085 130.142C75.7873 130.047 75.5345 129.968 75.2975 129.905Z" fill="white"/>
<path d="M231.77 339.259C234.124 334.984 236.099 331.325 238.137 327.681C239.748 324.795 239.495 322.524 236.762 320.189C227.125 312.035 217.677 303.659 207.961 295.205C213.206 292.729 218.672 292.208 223.839 294.416C229.668 296.909 235.309 300 240.633 303.454C246.747 307.413 252.371 312.145 258.328 316.372C261.345 318.517 262.246 321.167 261.013 324.511C256.858 335.883 258.912 335.536 267.238 340.457C272.325 343.47 275.201 346.404 274.443 353.107C273.858 358.312 275.738 363.864 276.97 369.148C277.444 371.167 279.34 372.823 280.241 374.795C280.888 376.215 281.694 378.817 281.125 379.29C279.024 380.994 276.481 382.492 273.874 383.076C272.878 383.297 270.682 381.088 270.098 379.574C268.644 375.836 268.091 371.735 266.606 368.013C265.595 365.521 264.047 362.839 261.961 361.262C252.071 353.77 241.96 346.64 231.77 339.259Z" fill="white"/>
<path d="M177.595 222.902C173.488 222.539 171.118 221.735 172.445 217.192C173.44 213.817 171.781 210.899 169.333 208.423C167.61 206.672 165.825 204.874 164.577 202.808C162.507 199.385 159.837 196.924 155.919 196.088C153.233 195.505 151.812 194.085 151.827 191.293C151.875 185.221 151.764 179.132 152.017 173.076C152.112 170.584 153.755 169.306 156.504 169.211C157.863 169.164 159.458 168.407 160.469 167.445C165.288 162.902 169.949 158.186 174.704 153.486C179.744 160.221 179.839 163.028 175.526 169.511C169.901 177.95 170.897 189.637 178.275 197.634C180.787 200.363 181.434 203.107 180.739 206.53C179.649 211.83 178.685 217.177 177.595 222.902Z" fill="white"/>
<path d="M163.977 273.754C155.872 271.199 152.949 266.025 153.581 260.757C154.008 257.114 152.317 255.032 149.41 253.17C137.245 245.347 125.19 237.366 113.12 229.401C112.33 228.88 111.588 227.95 111.303 227.05C110.181 223.454 108.981 219.842 108.365 216.136C108.143 214.763 109.471 213.123 110.087 211.609C111.398 212.366 113.294 212.792 113.91 213.927C116.09 217.855 119.076 219.196 123.342 218.028C125.901 217.334 127.544 218.06 129.077 220.505C137.64 234.085 148.715 245.095 163.124 252.539C164.087 253.028 165.288 254.338 165.256 255.221C165.019 261.293 164.466 267.366 163.977 273.754Z" fill="white"/>
<path d="M45.6904 241.498C49.9719 237.524 54.1428 233.596 58.3927 229.779C59.0089 229.227 59.9726 229.006 60.8099 228.77C71.727 225.836 82.6914 223.044 93.5452 219.89C94.9829 219.464 96.7998 217.303 96.8946 215.852C97.179 211.262 100.639 212.334 103.167 211.798C106.2 211.136 106.453 213.486 106.895 215.552C107.116 216.562 107.385 217.571 107.59 218.596C108.839 224.763 106.042 229.353 100.007 231.104C84.7768 235.552 69.5309 239.968 54.3166 244.495C50.8566 245.52 47.9022 245.662 45.6904 241.498Z" fill="white"/>
<path d="M216.16 223.391C217.709 218.502 218.862 213.707 220.726 209.227C222.638 204.606 230.19 201.956 235.245 203.628C238.626 204.748 241.992 205.899 245.673 207.145C245.578 208.533 245.483 210.473 245.325 212.397C244.82 218.407 242.481 220.442 236.383 221.025C230.427 221.593 224.502 222.603 218.562 223.391C217.819 223.47 217.045 223.391 216.16 223.391Z" fill="white"/>
<path d="M117.133 171.215C118.902 163.943 118.997 156.893 115.221 149.716C119.613 150.521 120.909 147.855 122.726 145.347C125.554 141.42 128.793 137.713 132.221 134.306C133.027 133.502 135.87 133.596 136.897 134.401C138.698 135.804 138.904 137.744 137.024 140.016C130.467 147.981 126.123 157.161 124.242 167.271C123.437 171.656 121.493 172.555 117.133 171.215Z" fill="white"/>
<path d="M261.772 230.237C259.528 237.492 257.727 244.937 254.899 251.956C252.056 259.054 248.216 265.741 244.725 272.571C244.282 273.438 243.192 273.99 242.402 274.684C242.102 273.675 241.454 272.618 241.581 271.656C241.865 269.227 242.15 266.703 243.019 264.432C246.889 254.369 250.823 244.337 255.041 234.416C255.926 232.334 258.106 230.789 259.686 228.99C260.366 229.416 261.077 229.826 261.772 230.237Z" fill="white"/>
<path d="M87.1625 97.3344C89.1215 91.6246 90.6856 87.0347 92.4235 81.9874C98.3007 84.2587 103.799 86.3722 109.865 88.7224C107.338 90.7729 105.268 92.4606 103.198 94.1325C103.198 93.7224 103.198 93.3123 103.214 92.918C100.513 92.5552 97.6213 91.4195 95.1883 92.0505C92.6289 92.6814 90.496 95.0315 87.1625 97.3344Z" fill="white"/>
<path d="M40.145 158.091C45.9906 174.069 51.4728 189.085 57.0972 204.432C52.1679 202.618 39.4656 167.981 40.145 158.091Z" fill="white"/>
<path d="M306.83 356.183C308.189 358.439 301.427 373.013 295.961 380.552C295.597 380.521 295.218 380.473 294.855 380.442C294.981 379.479 294.855 378.36 295.281 377.555C299.01 370.521 302.833 363.565 306.83 356.183Z" fill="white"/>
<path d="M73.4017 321.356C76.3244 326.088 79.3262 330.757 82.0752 335.584C82.565 336.435 81.9015 337.934 81.6803 340.016C74.9657 334.685 74.6972 327.808 73.4017 321.356Z" fill="white"/>
<path d="M181.782 343.028C181.213 355.252 180.645 367.492 180.092 379.716C179.618 379.7 179.128 379.685 178.654 379.653C179.238 367.445 179.807 355.252 180.392 343.044C180.834 343.044 181.308 343.028 181.782 343.028Z" fill="white"/>
<path d="M312.628 183.849C312.628 177.035 312.628 170.221 312.628 163.407C312.786 163.407 312.944 163.391 313.102 163.391C313.102 170.205 313.102 177.019 313.102 183.833C312.944 183.833 312.786 183.833 312.628 183.849Z" fill="white"/>
<path d="M155.824 239.842C160.612 241.199 165.399 242.571 171.197 244.227C164.293 246.23 159.758 244.685 155.919 239.748C155.903 239.748 155.824 239.842 155.824 239.842Z" fill="white"/>
<path d="M166.094 304.274C167.358 302.823 168.622 301.372 169.885 299.937C170.486 300.363 171.086 300.789 171.702 301.199C172.145 305.095 172.571 308.975 173.061 313.328C171.228 310.3 169.649 307.713 168.053 305.11C167.405 304.826 166.757 304.543 166.094 304.274Z" fill="white"/>
<path d="M214.754 331.136C210.299 327.256 205.828 323.36 201.373 319.48C201.689 319.101 201.989 318.722 202.305 318.344C206.855 322.129 211.405 325.915 215.955 329.685C215.544 330.174 215.149 330.662 214.754 331.136Z" fill="white"/>
<path d="M210.346 303.344C213.633 305.016 216.224 306.751 213.396 310.647C208.15 308.833 207.503 307.398 210.346 303.344Z" fill="white"/>
<path d="M201.689 295.836C203.521 297.508 205.022 298.864 206.618 300.3C205.275 302.571 203.442 304.322 201.057 302.744C197.707 300.52 201.12 298.454 201.689 295.836Z" fill="white"/>
<path d="M81.1589 252.066C83.6551 252.934 85.2508 253.502 87.2573 254.196C85.9934 255.71 85.0612 256.83 83.8921 258.218C82.9916 256.199 82.2964 254.637 81.1589 252.066Z" fill="white"/>
<path d="M185.716 269.29C183.646 270.379 181.861 271.262 180.218 272.35C180.092 272.429 181.087 274.795 181.324 274.748C183.188 274.416 184.973 273.754 187.296 273.06C188.117 275.079 187.691 277.334 184.768 278.833C182.003 280.252 179.412 279.29 177.611 276.215C176.094 273.644 176.79 270.394 179.444 268.754C181.861 267.24 184.278 267.05 185.716 269.29Z" fill="white"/>
<path d="M65.8498 193.249C67.5719 196.167 69.3571 199.054 70.9686 202.019C72.0587 204.038 73.3227 204.921 75.8505 204.574C84.998 203.328 94.1772 202.397 103.341 201.246C106.532 200.836 108.317 199.164 107.511 195.615C107.338 194.842 107.622 193.975 107.733 192.666C111.177 198.391 109.676 202.208 103.815 203.139C92.0443 205.016 80.2268 206.688 68.425 208.36C66.8293 208.58 65.1704 208.391 63.5431 208.391C63.4957 207.949 63.4641 207.508 63.4168 207.066C65.6286 206.798 67.8562 206.546 70.5579 206.214C68.583 201.956 66.6871 197.886 64.7913 193.801C65.1388 193.628 65.4864 193.438 65.8498 193.249Z" fill="black"/>
<path d="M99.5646 190.379C99.5646 183.833 99.5646 177.271 99.5646 170.726C99.7226 170.726 99.8806 170.726 100.054 170.726C100.402 177.271 100.734 183.817 101.081 190.363C100.576 190.379 100.07 190.379 99.5646 190.379Z" fill="black"/>
</svg>
