<svg width="311" height="193" viewBox="0 0 311 193" fill="none" xmlns="http://www.w3.org/2000/svg">
<path d="M429.628 138.687C431.844 142.796 432.467 147.549 431.361 151.908C430.255 156.267 427.51 159.878 423.723 161.954L134.215 319.287C130.417 321.351 125.889 321.699 121.625 320.254C117.361 318.81 113.712 315.692 111.48 311.585C109.249 307.478 108.617 302.72 109.724 298.357C110.831 293.993 113.587 290.382 117.385 288.318L178.4 255.16C182.198 253.096 184.953 249.485 186.06 245.122C187.168 240.758 186.536 236 184.304 231.893C182.073 227.786 178.424 224.668 174.16 223.224C169.896 221.779 165.367 222.127 161.57 224.191L96.396 259.609C92.5267 260.311 88.4528 259.519 84.9158 257.38C81.3789 255.241 78.6135 251.895 77.1231 247.953C75.6329 244.01 75.5164 239.731 76.795 235.895C78.0738 232.06 80.6627 228.922 84.0907 227.053L214.214 156.338C218.012 154.274 220.767 150.663 221.874 146.3C222.982 141.936 222.35 137.178 220.118 133.071C217.887 128.965 214.238 125.846 209.974 124.402C205.71 122.957 201.181 123.305 197.384 125.369L131.388 161.234C127.59 163.298 123.062 163.646 118.798 162.202C114.534 160.757 110.885 157.639 108.653 153.532C106.421 149.425 105.79 144.667 106.897 140.303C108.005 135.94 110.76 132.329 114.558 130.265L275.811 42.6322C279.609 40.5683 284.138 40.2203 288.401 41.6649C292.665 43.1092 296.314 46.2279 298.546 50.3346C300.778 54.4414 301.409 59.1997 300.302 63.5633C299.194 67.9265 296.439 71.5373 292.641 73.6012L256.53 93.2256C252.732 95.2895 249.977 98.9003 248.87 103.263C247.762 107.627 248.394 112.385 250.626 116.492C252.857 120.599 256.506 123.718 260.77 125.162C265.034 126.607 269.563 126.259 273.36 124.195L373.599 69.7201C377.397 67.6561 381.925 67.3082 386.189 68.7527C390.453 70.1971 394.102 73.3157 396.334 77.4225C398.565 81.5293 399.197 86.2875 398.089 90.6509C396.982 95.0145 394.227 98.6252 390.429 100.689L386.494 102.827C384.904 103.113 383.378 103.648 381.969 104.414L220.716 192.047C216.931 194.123 214.185 197.734 213.079 202.093C211.972 206.452 212.595 211.205 214.812 215.314C217.052 219.411 220.702 222.52 224.961 223.963C229.221 225.406 233.746 225.066 237.546 223.016L406.893 130.985C410.694 128.935 415.219 128.595 419.478 130.038C423.738 131.481 427.387 134.591 429.628 138.687Z" fill="url(#paint0_linear_3_657)" fill-opacity="0.5"/>
<path d="M97.8224 180.348C105.903 175.956 108.604 165.313 103.855 156.575C99.1069 147.838 88.7071 144.314 80.6264 148.705C72.5457 153.097 69.8448 163.74 74.5933 172.478C79.3418 181.216 89.7417 184.739 97.8224 180.348Z" fill="url(#paint1_linear_3_657)" fill-opacity="0.5"/>
<defs>
<linearGradient id="paint0_linear_3_657" x1="78.0031" y1="249.983" x2="396.151" y2="77.0859" gradientUnits="userSpaceOnUse">
<stop stop-color="#5B38D2"/>
<stop offset="1" stop-color="#CF4DA7"/>
</linearGradient>
<linearGradient id="paint1_linear_3_657" x1="3571.88" y1="-785.416" x2="4947.2" y2="-1532.83" gradientUnits="userSpaceOnUse">
<stop stop-color="#5B38D2"/>
<stop offset="1" stop-color="#CF4DA7"/>
</linearGradient>
</defs>
</svg>
