<svg width="331" height="407" viewBox="0 0 331 407" fill="none" xmlns="http://www.w3.org/2000/svg">
<path d="M0.0143127 46.224L17.6143 38.7792L61.4404 7.35962L74.5061 0.372237L136.406 5.59306L173.992 16.9022L185.035 7.95899L200.328 0.372237L203.599 0.00946045L222.02 6.06624L243.744 15.8139L249.542 19.7571V28.3533L254.25 36.1451L248.499 45.0883L317.92 261.461L322.233 266.224L326.419 269.379L326.277 286.618L323.591 289.505L315.06 301.145L324.982 302.628L330.417 313.7L278.438 405.845L272.893 406.902L250.648 392.644L242.575 367.013L203.188 331.776L149.061 294.836L31.5489 126.555L26.0667 109.647L30.0006 96.5867L35.941 88.1167L41.0914 87.1861L67.6178 75.2618L0.0143127 46.224Z" fill="white"/>
</svg>
