<svg width="117" height="51" viewBox="0 0 117 51" fill="none" xmlns="http://www.w3.org/2000/svg">
<path d="M116.62 2.68654C116.741 0.728941 116.184 -0.0140872 114.083 0.000201821C103.374 0.0930804 92.6571 0.0645024 81.9475 0.00734632C80.3971 0.000201821 79.2754 0.471739 78.1894 1.57199C70.4019 9.43809 62.5501 17.2327 54.7698 25.106C54.1339 25.749 51.4476 26.7564 54.8555 27.6494C55.9057 27.9281 55.3199 29.5713 55.2699 30.5715C55.1913 32.1648 53.8481 31.486 53.0837 31.4932C42.4884 31.5432 31.9002 31.5289 21.3049 31.536C20.0189 31.536 18.8115 31.4217 17.7041 32.5434C12.0885 38.1804 6.38719 43.7246 0 50.0117C12.0671 50.0117 22.8838 49.9831 33.6935 50.0403C35.4439 50.0475 36.0369 49.4044 35.8583 47.7398C35.7582 46.7967 35.9797 45.8108 35.8154 44.8891C35.2938 42.0456 36.6513 41.6598 39.1519 41.6812C53.198 41.8027 67.2441 41.6812 81.283 41.7955C83.6764 41.817 84.7338 41.3597 84.5123 38.7163C84.2694 35.8799 84.6266 32.9935 84.398 30.1572C84.2123 27.8352 85.0839 27.2993 87.1987 27.478C89.3277 27.6566 91.4997 27.3351 93.6144 27.5637C96.2508 27.8566 96.8295 26.7635 96.6723 24.363C96.4722 21.2837 96.7294 18.1758 96.5865 15.0822C96.4937 13.1675 97.1724 12.6031 99.0228 12.7031C101.631 12.846 104.26 12.8317 106.875 12.7174C110.032 12.5745 114.348 14.1249 116.027 11.9958C117.613 10.0025 116.427 5.87298 116.62 2.68654ZM49.4828 39.2164C48.2397 39.2092 47.8825 38.7663 47.9039 37.5803C47.9253 36.4443 48.1682 35.7584 49.4757 36.0156C50.776 35.7584 51.0189 36.4586 51.0475 37.5874C51.0761 38.752 50.7474 39.2235 49.4828 39.2164ZM55.7486 39.2021C54.2482 39.2878 54.4626 38.3376 54.4125 37.416C54.3411 36.1514 54.9198 35.7227 55.9272 35.9728C57.3132 35.837 57.6204 36.4086 57.6776 37.5803C57.7562 39.1807 56.8845 39.1378 55.7486 39.2021ZM64.4434 37.4517C64.3863 38.5162 64.372 39.3235 62.9931 39.2021C62.0071 39.1092 60.6926 39.5307 60.9712 37.7017C60.8426 36.6801 60.9783 35.8513 62.3715 35.9585C63.386 36.0299 64.5434 35.687 64.4434 37.4517ZM69.3446 39.1807C68.3586 39.1021 67.5227 39.2021 67.537 37.7375C67.5513 36.33 68.08 35.9442 69.4089 35.9371C70.6877 35.9299 71.095 36.4372 70.9163 37.5946C71.1164 38.852 70.5663 39.2735 69.3446 39.1807ZM75.7675 39.1664C74.4386 39.3164 74.21 38.602 74.1814 37.4588C74.1528 36.0799 74.8815 35.9799 75.9604 35.9371C77.3035 35.8799 77.475 36.5658 77.5036 37.6732C77.5393 39.0163 76.8606 39.3021 75.7675 39.1664ZM110.64 8.39499C108.861 8.38785 107.082 8.3807 105.31 8.3807C103.531 8.3807 101.752 8.38785 99.9802 8.38785C96.6651 8.38785 93.3429 8.3807 90.0279 8.39499C88.6133 8.40214 87.3487 8.1878 87.3487 6.38739C87.3487 4.7513 88.3847 4.07971 89.8779 4.07257C96.8652 4.05114 103.86 4.04399 110.847 4.07971C112.176 4.08686 113.126 4.687 113.155 6.19449C113.19 7.92346 112.162 8.40214 110.64 8.39499Z" fill="#FAFAF9"/>
</svg>
