<svg width="230" height="222" viewBox="0 0 230 222" fill="none" xmlns="http://www.w3.org/2000/svg">
<path d="M181.782 139.262L199.793 155.082L211.642 147.716L226.351 159.877C226.351 159.877 230.127 156.423 228.973 168.032C227.82 179.64 222.654 219.167 222.654 219.167L207.945 221.77L174.499 176.375L142.301 157.527L129.14 164.972L122.189 167.038L91.7758 160.114L84.2397 143.852L88.1104 130.192L71.9639 135.524L62.8638 139.972L56.56 138.804L35.6739 111.502L12.3547 90.571L0.742546 45.3029L34.173 32.1168L32.7669 20.6183L40.8717 8.12622L47.6811 7.43221L51.8836 1.53317L69.9101 8.23664L102.25 0.0662842L173.045 43.8518L190.203 93.1893L181.782 139.262Z" fill="white"/>
</svg>
